<svg xmlns="http://www.w3.org/2000/svg" viewBox="0 0 4680 3120" id="business-woman-working-on-idea-generation"><g data-name="9"><rect width="4680" height="3120" fill="#fff" data-name="9" opacity="0"></rect><path fill="#2e6857" fill-rule="evenodd" d="M609.35,2308.65c-139.68,73-71.09,182.67,43.72,207.33s567.44,31.73,680.45,110.42c43.81,30.51,48.39,16.48,28.07-16.75C1260.27,2443.8,801.62,2208.22,609.35,2308.65Z"></path><path d="M1367.5,2647.29c-7.52,0-19.2-5.72-36.27-17.61-76.34-53.16-315.05-73.72-489.34-88.73-82.14-7.08-153.07-13.18-189.67-21.06-32.55-7-61.66-20.57-84.18-39.26-23-19.07-36.82-41.6-40-65.16-5.63-41.46,22.6-80.65,79.47-110.36h0c46.18-24.12,109-30.54,186.85-19.08,68.39,10.08,146.84,34.15,226.86,69.61,155.75,69,293.91,170.25,343.8,251.92,12,19.68,15.09,31.87,9.35,37.28A9.55,9.55,0,0,1,1367.5,2647.29ZM611.2,2312.2c-53.67,28-80.39,64.33-75.25,102.2,5.95,43.86,54.46,84,117.95,97.67,36.11,7.77,106.81,13.86,188.68,20.91,90.35,7.78,192.76,16.6,283.77,30.34,106.17,16,174.68,35.58,209.46,59.8,27.92,19.45,33,15.94,33,15.9.81-.76,1.35-7.61-10.68-27.28-49.12-80.4-185.84-180.38-340.22-248.79-79.37-35.17-157.1-59-224.79-69-76.1-11.22-137.32-5.08-182,18.25Z"></path><path d="M1367.92,2643.28c6.13-.27,6.72-6.21,2.77-16.15C1139.14,2396,593.8,2383.48,592.06,2383.45c-3-.08-6.27,2.52-7.29,5.83s.54,6,3.53,6.09C590.05,2395.44,1142.84,2408.17,1367.92,2643.28Z"></path><path fill="#40947e" fill-rule="evenodd" d="M466.46,1776.51c27.9-199.59,213.76-176.73,306.87-56.39s336.53,641.51,502.79,731.84c64.45,35,47.6,47.59-8.47,41.2C988,2461.33,428.06,2051.29,466.46,1776.51Z"></path><path d="M1286.64,2486.6a224.16,224.16,0,0,1-24.87-1.62c-95.29-10.85-227.11-66.13-361.63-151.67a1570.38,1570.38,0,0,1-186.93-139.1C652.54,2141.49,601,2087.92,560,2035c-37.31-48.14-65.06-94.83-82.46-138.77-18.84-47.53-25.56-91.9-20-131.86,5.8-41.54,18.64-75.48,38.16-100.86,17.92-23.31,40.89-38.83,68.25-46.1,67.34-17.91,152.33,18.66,206.69,88.92,29.6,38.27,74.54,117.23,126.58,208.67,110.71,194.53,262.33,461,375.11,522.23,42.37,23,44.77,33.64,42.88,39.62-1.6,5.08-7.43,8.1-17.82,9.24A98.58,98.58,0,0,1,1286.64,2486.6Zm-687-866.73a132.31,132.31,0,0,0-33.95,4.29c-54.62,14.53-90.59,64.66-101.28,141.17h0c-10.46,74.83,24.48,166.59,101,265.37,163.7,211.22,496,424.43,697.09,447.32,34.21,3.9,45-.23,45.94-3.29.28-.86,1.48-9.07-39.54-31.36-50.93-27.67-113-96.87-189.69-211.55-65.85-98.43-130.83-212.62-188.17-313.37-51.9-91.2-96.73-170-126-207.85C721.28,1654,657.21,1619.87,599.68,1619.87Z"></path><path d="M1311.54,2471.47c2.77,7.24-5.07,11-20.74,11.57-436.43-149.12-735.24-774.85-736.21-776.83-1.65-3.45.24-8.59,4.25-11.49s8.55-2.48,10.2,1C570,1697.68,872.92,2331.94,1311.54,2471.47Z"></path><path fill="#6fc183" fill-rule="evenodd" d="M970,1721.74c68.64-156.91,186.63-87.55,218.41,36.94s63,620.19,151,739.86c34.12,46.37,19.74,52.13-16,31.63C1145.25,2427.91,875.49,1937.73,970,1721.74Z"></path><path d="M1352.27,2544.92c-6.81,0-16.93-3.89-30.56-11.72-87.63-50.28-200.31-196.19-280.4-363.08-41.14-85.73-70.34-170.34-84.44-244.67-16-84.43-12.67-153.44,9.94-205.11,27.63-63.17,66.49-96,109.45-92.53,24.71,2,49,15.8,70.09,39.89,20.43,23.29,36.58,55.29,45.47,90.12,10.08,39.57,20.17,116.81,31.85,206.24,24.88,190.46,58.95,451.31,118.58,532.41,23.66,32.16,21.52,41.35,17.85,45.46C1358.32,2543.92,1355.72,2544.92,1352.27,2544.92Zm-282.15-910.36c-37.56,0-71.79,31.19-96.9,88.58h0c-22,50.36-25.22,118-9.48,201,14,73.74,43,157.75,83.88,242.94,79.52,165.72,191.07,310.4,277.57,360,25.32,14.54,29.65,10.18,29.69,10.13.2-.21,4.5-5.69-18.27-36.64-27-36.73-51-110.71-73.26-226.15-19.13-99.07-33.73-210.87-46.62-309.5-11.65-89.21-21.71-166.26-31.7-205.42-17.78-69.67-62.75-121-109.34-124.77C1073.82,1634.63,1072,1634.56,1070.12,1634.56Z"></path><path d="M1358.84,2535.33c.06,6.72-6.14,7.7-16.68,3.88-253.11-241.52-295-838.44-295.14-840.35-.23-3.29,2.32-7,5.72-8.33s6.31.3,6.56,3.58C1059.44,1696,1101.9,2301.1,1358.84,2535.33Z"></path><path fill="#3d5891" d="M2998.88,525.34,2673,511.13A20.47,20.47,0,0,0,2654,541l49.82,95.7L2074,987.39a25.41,25.41,0,0,1-37.25-17.09l-88.84-432.19a50.6,50.6,0,0,0-72.56-34.88l-515.18,263,53.35,104.48,407.4-208a25.41,25.41,0,0,1,36.44,17.52l91.78,446.48a43.29,43.29,0,0,0,63.46,29.11l745.41-415,46.59,89.49a20.48,20.48,0,0,0,35.43,1.55L3015.26,556.8A20.48,20.48,0,0,0,2998.88,525.34Z"></path><rect width="383.78" height="985.53" x="1684.27" y="1573.05" fill="#abc6ed"></rect><rect width="383.78" height="1307.66" x="2281.32" y="1250.92" fill="#abc6ed"></rect><rect width="420.23" height="1655.32" x="2824.18" y="903.26" fill="#abc6ed"></rect><rect width="383.78" height="1884.48" x="3394.14" y="674.1" fill="#abc6ed"></rect><rect width="383.78" height="985.53" x="1599.18" y="1573.05" fill="#d1dbed"></rect><rect width="383.78" height="1307.66" x="2196.23" y="1250.92" fill="#d1dbed"></rect><rect width="420.23" height="1655.32" x="2739.1" y="903.26" fill="#d1dbed"></rect><rect width="383.78" height="1884.48" x="3309.05" y="674.1" fill="#d1dbed"></rect><ellipse cx="2352.81" cy="2598.8" fill="#7a8db0" rx="1642.99" ry="109.8"></ellipse><path fill="#5681bf" d="M3746,1627.86c-.22,544.27-15.46,650.81-152.13,772.75-53.52,47.76-152,147-436,196.36-85.26,14.84-187.23,25.17-309.71,28.3-50,1.26-95.83-.55-137.79-5.12a719,719,0,0,1-97.41-17c-312.15-78.22-335.46-345.67-198.94-570.65,36.16-59.58,77.48-114.36,120.79-165.42,66.86-78.87,138.55-148.92,203.46-214.31,59.83-60.25,113.93-116.55,153.24-172.13,16.59-23.42,30.54-46.71,41.2-70.12q3.8-8.31,7.64-16.45c8.41-17.69,17.05-34.69,25.78-51,16.39-30.55,33.08-58.47,49.2-83.45,12.84-20,25.31-38,36.9-54.07,39.86-55.1,69.47-86,69.47-86s3.69-1.73,10.52-4.56c3.62-1.52,8.16-3.35,13.5-5.39,2.14-.82,4.4-1.68,6.8-2.56s4.87-1.78,7.49-2.71c2.4-.84,4.9-1.72,7.46-2.59,3-1,6.18-2.08,9.45-3.16,1.93-.62,3.89-1.26,5.9-1.88,1.18-.38,2.39-.75,3.59-1.12l1.38-.42c40.53-12.42,96.1-25.37,156.61-27.53C3523.82,1061.23,3746.24,1149.69,3746,1627.86Z"></path><path fill="#2f4171" d="M2533.43,2012.8s286.83,170.44,559,151.47,419.19,59.3,435.79-256.2-22.07-621.48-218.23-621S2492.29,1631.24,2533.43,2012.8Z" opacity=".53"></path><path fill="#f3ce90" d="M3592.53,833.13H3835.1a9.83,9.83,0,0,1,9.82,9.83V996.43a9.82,9.82,0,0,1-9.82,9.82H3629.25l-34.94,30.94a8.46,8.46,0,0,1-11.6-7.86V843A9.82,9.82,0,0,1,3592.53,833.13Z"></path><path d="M3573.89,1024a12,12,0,0,1-12-12V825.62a13.33,13.33,0,0,1,13.32-13.32h242.57a13.33,13.33,0,0,1,13.32,13.32V979.09a13.33,13.33,0,0,1-13.32,13.32H3613.3l-34.41,30.47-.56.23A12,12,0,0,1,3573.89,1024Zm1.36-204.66a6.32,6.32,0,0,0-6.32,6.32V1012a5,5,0,0,0,6.3,4.79l35.42-31.37h207.17a6.32,6.32,0,0,0,6.32-6.32V825.62a6.32,6.32,0,0,0-6.32-6.32Z"></path><path fill="#fff" d="M3757.26 901.76a11.44 11.44 0 1011.44-11.43A11.44 11.44 0 003757.26 901.76zM3685.1 901.76a11.44 11.44 0 1011.44-11.43A11.44 11.44 0 003685.1 901.76zM3612.94 901.76a11.44 11.44 0 1011.44-11.43A11.44 11.44 0 003612.94 901.76z"></path><path fill="#f3ce90" d="M914.88,1377.81c0-365.25,296.1-661.35,661.35-661.35s661.36,296.1,661.36,661.35a658.37,658.37,0,0,1-126.81,389.43h0c-94.4,142.25-253.13,302.86-253.13,399.09v109.93a39.74,39.74,0,0,1-39.74,39.73H1333.33a39.73,39.73,0,0,1-39.73-39.73V2166.33c0-96.23-157.51-256.84-251.91-399.09h0A658.3,658.3,0,0,1,914.88,1377.81Z" opacity=".7"></path><path fill="#ef7c59" d="M1478.71,2314.29l.47-10.28c.12-2.72,12.13-271.85-8.52-506.27-89.38-13.65-161.66-45.24-214.93-94-59.29-54.22-79.19-115.2-85.44-156.8-4.7-31.26-2-63.88,7.6-91.86,9.86-28.74,26.58-51.32,47.07-63.57a102.1,102.1,0,0,1,53.19-14.37,129.23,129.23,0,0,1,35.61,5.23c49.4,14.17,96.16,56.37,125.09,112.88,28.4,55.49,49.24,147.6,62,273.83a724,724,0,0,0,150.86,0c12.72-126.23,33.56-218.34,62-273.83,28.92-56.51,75.68-98.71,125.09-112.88a129.23,129.23,0,0,1,35.61-5.23,102.17,102.17,0,0,1,53.19,14.37c20.49,12.25,37.2,34.83,47.06,63.57,9.61,28,12.31,60.61,7.61,91.86-6.26,41.6-26.16,102.58-85.45,156.8-53.27,48.72-125.54,80.31-214.93,94-20.77,235.73-8.64,503.56-8.51,506.26l.48,10.29-32.24,1.51-.48-10.29c-.53-11.18-12.33-272,7.56-503.62-23.16,2.28-47.45,3.44-72.38,3.44s-49.21-1.16-72.37-3.44c19.89,231.57,8.08,492.44,7.56,503.62l-.48,10.29ZM1278.2,1409.47a70.41,70.41,0,0,0-36.68,9.78c-14.13,8.45-26,25.37-33.37,47.63-7.66,23.09-9.77,49.84-6,75.3,17.23,114.63,116,197.09,265.28,222.34-12.25-118.49-31.54-204.07-57.36-254.53-24.93-48.71-64.28-84.8-105.26-96.56A96.8,96.8,0,0,0,1278.2,1409.47Zm596.06,0a96.79,96.79,0,0,0-26.65,4c-41,11.76-80.33,47.85-105.26,96.56-25.83,50.46-45.12,136-57.37,254.53,149.28-25.26,248-107.71,265.28-222.34,3.83-25.46,1.72-52.21-5.94-75.3-7.39-22.26-19.24-39.18-33.38-47.63A70.39,70.39,0,0,0,1874.26,1409.47Z"></path><path d="M1638.19,2319.46l-.64-13.79c-.51-10.94-12.2-269.08,7.22-499.9-22,2-45,3.06-68.54,3.06s-46.52-1-68.53-3.06c19.42,230.77,7.72,489,7.21,499.9l-.64,13.79-39.22-1.84.63-13.77c.13-2.68,12-269.64-8.27-503.07-88.81-14-160.81-45.74-214-94.42-60-54.91-80.2-116.7-86.54-158.86-4.78-31.8-2-65,7.75-93.51,10.13-29.53,27.39-52.77,48.58-65.44a105.57,105.57,0,0,1,55-14.87,132.82,132.82,0,0,1,36.58,5.36c50.31,14.44,97.87,57.3,127.24,114.65,28.38,55.46,49.24,147,62,272.25a722.41,722.41,0,0,0,144.46,0c12.79-125.21,33.66-216.8,62-272.25,29.36-57.35,76.92-100.21,127.24-114.65a133.13,133.13,0,0,1,36.57-5.36,105.52,105.52,0,0,1,55,14.87c21.2,12.67,38.46,35.91,48.58,65.44,9.79,28.5,12.54,61.71,7.76,93.51-6.34,42.16-26.5,104-86.55,158.87-53.23,48.67-125.23,80.43-214,94.41-20.46,235.25-8.39,500.4-8.27,503.06l.65,13.78ZM1652.46,1798l-.36,4.19c-19.88,231.41-8.07,492.17-7.56,503.16l.32,6.79,25.25-1.18-.32-6.79c-.13-2.68-12.31-270.35,8.52-506.74l.25-2.74,2.71-.41c88.67-13.54,160.37-44.86,213.1-93.08,58.53-53.53,78.18-113.7,84.35-154.74,4.61-30.71,2-62.74-7.46-90.2-9.59-28-25.77-49.88-45.55-61.71a98.72,98.72,0,0,0-51.4-13.87,126.17,126.17,0,0,0-34.64,5.09c-48.49,13.91-94.45,55.45-122.94,111.11-28.19,55.09-48.91,146.8-61.59,272.59l-.28,2.83-2.82.3a727.63,727.63,0,0,1-151.62,0l-2.82-.31-.28-2.82c-12.67-125.78-33.39-217.5-61.59-272.59-28.49-55.66-74.45-97.2-122.93-111.11a125.86,125.86,0,0,0-34.65-5.09,98.71,98.71,0,0,0-51.39,13.87c-19.79,11.83-36,33.75-45.56,61.71-9.42,27.46-12.07,59.49-7.45,90.2,6.17,41,25.81,101.21,84.35,154.74,52.72,48.22,124.42,79.54,213.09,93.08l2.72.41.24,2.74c20.66,234.54,8.65,504.05,8.53,506.74l-.32,6.79,25.24,1.18.32-6.79c.51-11,12.32-271.8-7.55-503.16L1500,1798l4.19.41c23,2.27,47.27,3.42,72,3.42s49-1.15,72-3.42Zm28.56-29.26.47-4.58c12.3-118.89,31.73-204.94,57.74-255.76,25.37-49.56,65.52-86.32,107.41-98.34a100.69,100.69,0,0,1,27.62-4.09,73.94,73.94,0,0,1,38.48,10.27c14.86,8.89,27.25,26.48,34.9,49.54,7.83,23.61,10,50.92,6.08,76.92-8.57,57.06-37.74,107.84-84.33,146.85-46.35,38.8-109.91,65.92-183.83,78.42ZM1874.26,1413a93.74,93.74,0,0,0-25.69,3.82c-40.06,11.5-78.61,46.93-103.11,94.8-25.28,49.39-44.29,133.06-56.52,248.69,144.88-25.84,241.13-107.33,257.86-218.62,3.75-24.93,1.69-51.1-5.8-73.68-7.12-21.46-18.44-37.7-31.85-45.73A67,67,0,0,0,1874.26,1413Zm-402.82,355.77-4.54-.77c-73.92-12.5-137.48-39.62-183.82-78.42-46.6-39-75.76-89.79-84.34-146.85-3.91-26-1.74-53.31,6.09-76.92,7.65-23.06,20-40.65,34.89-49.54A74,74,0,0,1,1278.2,1406a100.76,100.76,0,0,1,27.63,4.09c41.89,12,82,48.78,107.4,98.34,26,50.81,45.44,136.86,57.74,255.76ZM1278.2,1413a67,67,0,0,0-34.88,9.28c-13.42,8-24.73,24.27-31.85,45.73-7.49,22.58-9.55,48.75-5.81,73.68,16.73,111.29,113,192.78,257.86,218.62-12.23-115.64-31.24-199.3-56.52-248.69-24.5-47.86-63-83.3-103.1-94.8A93.81,93.81,0,0,0,1278.2,1413Z"></path><path fill="#fff" d="M2127.48 1415.76a38 38 0 01-37.94-38c0-235.32-159.1-440-386.9-497.63a37.94 37.94 0 1118.62-73.57c261.52 66.21 444.17 301.1 444.17 571.2A38 38 0 012127.48 1415.76zM1563.49 825.52a37.95 37.95 0 1037.94-37.94A37.95 37.95 0 001563.49 825.52z" opacity=".68"></path><path fill="#f19a6d" d="M2236.32,1416.92c-36.5,271.18-255.45,551.93-660.09,551.93S960.82,1675,916.15,1416.92a657.88,657.88,0,0,0,125.54,350.32h0c94.4,142.25,251.91,302.86,251.91,399.09v109.93a39.73,39.73,0,0,0,39.73,39.73h484.58a39.74,39.74,0,0,0,39.74-39.73V2166.33c0-96.23,158.73-256.84,253.13-399.09h0A658,658,0,0,0,2236.32,1416.92Z" opacity=".31"></path><path fill="#ef7c59" d="M1858.86,2147.63V2573.5a49.7,49.7,0,0,1-49.7,49.7H1343.3a49.7,49.7,0,0,1-49.7-49.7V2147.63Z"></path><path fill="#b24228" d="M1293.56 2310.63a34.87 34.87 0 004.89-.17l565.25-58.6a33.88 33.88 0 0030.1-38.73c-2.68-19.39-20.53-33.5-39.79-31.48l-565.25 58.59a33.87 33.87 0 00-30.09 38.73A36.86 36.86 0 001293.56 2310.63zM1293.56 2433.93a34.88 34.88 0 004.89-.18l565.25-58.59a33.88 33.88 0 0030.1-38.73C1891.12 2317 1873.27 2303 1854 2305l-565.25 58.59a33.87 33.87 0 00-30.09 38.73A36.86 36.86 0 001293.56 2433.93zM1316.14 2556a35 35 0 004.89-.17l535.78-55.55a33.88 33.88 0 0030.09-38.73c-2.67-19.39-20.54-33.5-39.78-31.48l-535.78 55.54a33.88 33.88 0 00-30.1 38.73A36.88 36.88 0 001316.14 2556z"></path><path fill="#ef7c59" d="M1576.23,660a16.5,16.5,0,0,1-16.5-16.5V435.69a16.5,16.5,0,0,1,33,0V643.52A16.5,16.5,0,0,1,1576.23,660Z"></path><path fill="#d0d0d0" d="M1951,518.47l-83.94,190.12Z"></path><path fill="#ef7c59" d="M1867.08,725.1A16.51,16.51,0,0,1,1852,701.93l83.94-190.12a16.5,16.5,0,1,1,30.18,13.33l-83.93,190.12A16.5,16.5,0,0,1,1867.08,725.1Z"></path><path fill="#d0d0d0" d="M2266.91,748.41l-153.57,140Z"></path><path fill="#ef7c59" d="M2113.34,904.94a16.5,16.5,0,0,1-11.12-28.69l153.57-140A16.5,16.5,0,0,1,2278,760.61l-153.57,140A16.48,16.48,0,0,1,2113.34,904.94Z"></path><path fill="#d0d0d0" d="M1201.44,518.47l83.94,190.12Z"></path><path fill="#ef7c59" d="M1285.39,725.1a16.49,16.49,0,0,1-15.1-9.84l-83.94-190.12a16.5,16.5,0,1,1,30.19-13.33l83.93,190.12a16.51,16.51,0,0,1-15.08,23.17Z"></path><path fill="#d0d0d0" d="M885.56,748.41l153.57,140Z"></path><path fill="#ef7c59" d="M1039.12,904.94a16.44,16.44,0,0,1-11.11-4.3l-153.57-140a16.5,16.5,0,1,1,22.23-24.39l153.57,140a16.5,16.5,0,0,1-11.12,28.69Z"></path><path d="M1808.37 2627H1342.51a53.26 53.26 0 01-53.2-53.2v-25a40.07 40.07 0 01-12.32-23.75 37.46 37.46 0 0112.32-33.62v-54a40.59 40.59 0 01-34.9-34.42 37.63 37.63 0 017.62-28.64 37.06 37.06 0 0125.58-14l1.7-.17v-46a40.59 40.59 0 01-34.9-34.41 37.66 37.66 0 017.62-28.65 37 37 0 0125.58-14l1.7-.18v-70.34c0-65-73.39-160.09-151-260.79-34.77-45.09-70.72-91.72-100.26-136.22-2.29-3.15-4.66-6.46-7-9.83l-1.66-2.4-1.08-1.58c-1.38-2-2.77-4-4.12-6-.79-1.16-1.57-2.34-2.34-3.51l-1.19-1.8c-1.05-1.58-2.1-3.15-3.13-4.74s-2.14-3.34-3.2-5l-.22-.34q-1.51-2.37-3-4.75-1.86-3-3.67-6-1.26-2.07-2.51-4.14c-1.31-2.2-2.62-4.41-3.91-6.62-.67-1.14-1.32-2.27-2-3.41q-2.13-3.71-4.22-7.44l-.92-1.65-.4-.72c-1.89-3.42-3.33-6.07-4.67-8.57l-.35-.66q-2.11-4-4.19-8c-.79-1.52-1.56-3.05-2.33-4.58l-.84-1.66-.87-1.72c-1.06-2.12-2.1-4.26-3.14-6.39l-.71-1.47c-1.16-2.4-2.3-4.82-3.44-7.25l-.19-.41a664.86 664.86 0 111205.59-.26l-.21.46q-1.7 3.61-3.42 7.2l-.74 1.53c-1 2.11-2.06 4.22-3.11 6.32h0c-.27.55-.54 1.1-.82 1.64l-1 1.94q-1.11 2.2-2.23 4.39-2.05 4-4.18 8l-.55 1c-1.48 2.78-3 5.53-4.51 8.29l-.46.81c-.33.62-.67 1.23-1 1.85-1.34 2.41-2.71 4.8-4.09 7.19-.7 1.23-1.41 2.45-2.12 3.66-1.25 2.15-2.51 4.28-3.79 6.41q-1.31 2.19-2.64 4.36-1.75 2.9-3.55 5.77c-1 1.65-2.07 3.29-3.12 4.94s-2.2 3.46-3.31 5.18-2.29 3.49-3.45 5.23l-1 1.56c-.73 1.09-1.45 2.19-2.19 3.28-1.45 2.15-2.93 4.28-4.4 6.42l-.93 1.34c-.51.75-1 1.5-1.55 2.24-2.39 3.41-4.76 6.72-7 9.84-29.81 44.93-66.28 92-101.55 137.54-72 92.88-139.91 180.61-149.74 244.71v26.76a40.57 40.57 0 0134.9 34.41 37.6 37.6 0 01-7.62 28.65 37.06 37.06 0 01-25.58 14l-1.7.17v46a40.59 40.59 0 0134.9 34.39 37.64 37.64 0 01-7.62 28.67 37 37 0 01-25.58 14l-1.7.18v49.3a40.52 40.52 0 0128 32.93 37.38 37.38 0 01-28 41.78v70.67A53.26 53.26 0 011808.37 2627zm-515.54-196.27h.22l3.26.22v63.83l-1.31 1.05a30.52 30.52 0 00-11.08 28.3 33.18 33.18 0 0011.19 20.52l1.2 1v28.1a46.25 46.25 0 0046.2 46.2h465.86a46.25 46.25 0 0046.2-46.2v-76.5l2.93-.48a30.41 30.41 0 0025.15-34.52 33.47 33.47 0 00-25.38-27.8l-2.7-.63v-61.06l8-.83a30.08 30.08 0 0020.79-11.39 30.7 30.7 0 006.2-23.38 33.46 33.46 0 00-31.59-28.62l-3.38-.11v-59l8-.83a30.08 30.08 0 0020.79-11.39 30.71 30.71 0 006.2-23.38 33.41 33.41 0 00-31.59-28.62l-3.38-.12 0-34.17c10-65.92 78.55-154.47 151.17-248.21 35.21-45.45 71.61-92.45 101.3-137.18l.08-.13c2.29-3.13 4.65-6.43 7-9.8l1.5-2.18.94-1.37c1.47-2.11 2.93-4.22 4.36-6.35.72-1.07 1.44-2.15 2.15-3.23l1-1.56c1.14-1.72 2.28-3.44 3.4-5.17s2.2-3.42 3.29-5.13 2.06-3.25 3.08-4.89c1.19-1.89 2.36-3.8 3.52-5.7.87-1.44 1.75-2.88 2.61-4.32 1.26-2.1 2.51-4.22 3.75-6.34l2.1-3.62q2-3.54 4-7.12l1-1.81.45-.82q2.26-4.08 4.47-8.2l.54-1q2.1-3.94 4.14-7.91 1.11-2.16 2.2-4.34l1-1.95c.26-.53.53-1.06.8-1.6h0c1-2.07 2.05-4.16 3.07-6.25l.74-1.52q1.71-3.55 3.37-7.11l.21-.46a651.86 651.86 0 0061.35-277.59c0-362.74-295.11-657.86-657.86-657.86S917.59 1015.4 917.59 1378.14A651.84 651.84 0 00979.06 1656l.19.42c1.11 2.37 2.25 4.77 3.4 7.15l.7 1.45c1 2.11 2.06 4.22 3.11 6.32.28.57.56 1.13.85 1.69l.84 1.67q1.14 2.26 2.3 4.52 2.06 4 4.15 7.93l.34.64c1.33 2.48 2.75 5.1 4.63 8.49l.4.73c.3.54.59 1.08.89 1.61 1.38 2.47 2.78 4.92 4.19 7.37l2 3.37q1.92 3.29 3.88 6.55 1.23 2.05 2.48 4.09c1.2 2 2.41 3.94 3.63 5.9q1.47 2.35 3 4.7l.22.34q1.58 2.49 3.17 5c1 1.56 2.06 3.12 3.09 4.68l1.2 1.81c.76 1.16 1.52 2.31 2.3 3.45 1.34 2 2.71 4 4.07 5.94l1.11 1.6 1.61 2.34c2.36 3.36 4.72 6.65 7 9.79l.09.13c29.41 44.31 65.3 90.86 100 135.88 78.39 101.66 152.44 197.69 152.49 265.06v76.65l-8 .83a30.09 30.09 0 00-20.79 11.4 30.68 30.68 0 00-6.19 23.37 33.43 33.43 0 0031.48 28.63h3.44l0 3.5v55.57l-8 .83a30.09 30.09 0 00-20.79 11.4 30.68 30.68 0 00-6.19 23.37A33.43 33.43 0 001292.83 2430.75zM1575.44 668.47a24.65 24.65 0 01-24.62-24.62V436a24.63 24.63 0 1149.25 0V643.85A24.66 24.66 0 011575.44 668.47zm0-250.08A17.64 17.64 0 001557.82 436V643.85a17.63 17.63 0 0035.25 0V436A17.65 17.65 0 001575.44 418.39zM1866.28 733.55A24.62 24.62 0 011843.77 699l83.93-190.13a24.63 24.63 0 0145.06 19.89l-83.94 190.12A24.63 24.63 0 011866.28 733.55zm84-232.38a17.65 17.65 0 00-16.15 10.51L1850.17 701.8a17.62 17.62 0 009 23.24h0a17.45 17.45 0 007.1 1.51A17.65 17.65 0 001882.42 716l83.93-190.12a17.62 17.62 0 00-16.09-24.75z"></path><path d="M2112.56 913.4a24.63 24.63 0 01-16.6-42.83l153.57-140a24.63 24.63 0 0134.79 1.61h0a24.63 24.63 0 01-1.61 34.79L2129.14 907A24.56 24.56 0 012112.56 913.4zM2266.1 731.11a17.46 17.46 0 00-11.85 4.61l-153.57 140a17.62 17.62 0 1023.75 26l153.57-140a17.61 17.61 0 001.14-24.89h0a17.52 17.52 0 00-12.21-5.74zM1284.6 733.55a24.66 24.66 0 01-22.54-14.69l-83.93-190.12a24.62 24.62 0 1145-19.89L1307.12 699a24.63 24.63 0 01-22.52 34.57zm-83.95-232.39a17.64 17.64 0 00-16.12 24.75L1268.47 716a17.65 17.65 0 0016.13 10.51 17.63 17.63 0 0016.12-24.75l-83.94-190.12a17.67 17.67 0 00-16.13-10.52zM1038.33 913.4a24.56 24.56 0 01-16.58-6.43l-153.57-140a24.63 24.63 0 0133.18-36.4l153.57 140a24.63 24.63 0 01-16.6 42.83zM884.77 731.12a17.62 17.62 0 00-11.88 30.64l153.57 140a17.62 17.62 0 1023.75-26l-153.57-140A17.55 17.55 0 00884.77 731.12z"></path><path fill="#fff" d="M3369.53,1757.29c-24.69-45-66.48-107.71-84-194.15s29.19-146.36,68.32-283.16c49.41-172.72-34.94-193.92-158.46-207.51-77.84-8.56-140.48,20.06-140.48,20.06s-72.34,29.36-128.37,55.16a40,40,0,0,0-18.36,16.2l-.44-.58s-81.16,141.35-88.12,192.45c-3.73,27.34,23.59,41.16,49.81,48.11,8.65,38.47,62.86,72.55,56,93.88-7,21.76-55.11,205.79-74.53,264-18.36,55,55.15,111.72,158.19,112.28s118.86,13.79,230.62-10.13C3343.85,1841.6,3394.21,1802.3,3369.53,1757.29Z"></path><path fill="#6fc183" d="M3239.64,1863.9c-111.76,23.94-127.57,10.71-230.61,10.14s-176.55-57.24-158.19-112.28c19.42-58.22,67.47-242.25,74.52-264,6.9-21.34-47.31-55.42-56-93.89-26.23-6.95-53.55-20.77-49.82-48.11,7-51.09,93.9-179.22,93.9-179.22a40.15,40.15,0,0,1,18.37-16.19c56-25.8,123-67.82,123-67.82s16.27-7.44,42.55-13.6c-23,24.5-40.18,44.73-40.18,44.73s5.29,37.76,33.44,40.75,82.1-33.56,110.27-76.71c0,0,84.16,8.49,134.35,25.21h0c33.63,28.06,44.28,76.93,18.49,167.06-39.13,136.8-85.87,196.72-68.32,283.16s59.34,149.14,84,194.14S3343.86,1841.6,3239.64,1863.9Z"></path><path d="M3126.47,1881.69c-14.87,0-29.13-.78-45.23-1.67-19.82-1.08-42.29-2.31-72.23-2.48-65.79-.36-125.17-24.14-151.29-60.6-12.94-18.06-16.47-37.52-10.21-56.29,12.43-37.24,36.61-126.14,54.27-191.06,9.89-36.33,17.7-65,20.25-72.91,2.87-8.88-9.11-22.81-21.8-37.55-13.47-15.63-28.66-33.29-33.73-52.42-36.19-10.06-53.6-27.81-50.38-51.42,7-51.19,85.23-187.93,88.56-193.72l2.59-4.51.68.87a44.5,44.5,0,0,1,17.1-13.42c54.78-25.22,126-54.21,128.46-55.2,2.61-1.17,65.6-28.74,142.23-20.32,33,3.64,67.41,8.23,95.38,17.22,29.8,9.56,50.57,23.58,63.5,42.83,10.78,16.06,16.34,35.69,17,60,.68,25.51-4,55.56-14.42,91.87-12.9,45.08-26.54,81.63-38.57,113.87-24,64.2-41.28,110.58-29.69,167.64,14.71,72.43,47.26,129.27,71,170.78,4.52,7.89,8.79,15.34,12.64,22.37h0c7.88,14.36,8.75,28.46,2.6,41.91-13.6,29.71-60.21,53.85-134.82,69.82C3187.52,1878.65,3155.81,1881.69,3126.47,1881.69Zm-218.35-712c-14,24.77-79,141.87-85.07,186.55-2.77,20.32,13.13,35.21,47.25,44.26l2,.54.47,2.07c4.1,18.23,19.3,35.89,32.71,51.47,14.62,17,27.24,31.64,23.16,44.26-2.5,7.73-10.29,36.36-20.15,72.6-17.68,65-41.9,154-54.39,191.44-5.52,16.54-2.32,33.83,9.26,50,24.86,34.69,82,57.33,145.63,57.67,30.12.17,52.68,1.4,72.58,2.49,47.31,2.6,78.56,4.31,157.28-12.54,71.33-15.27,117.47-38.67,129.92-65.89,5.18-11.33,4.39-23.32-2.36-35.63h0c-3.83-7-8.08-14.4-12.58-22.27-24-41.91-56.88-99.32-71.81-172.86-12-59,5.62-106.19,30-171.47,12-32.13,25.58-68.54,38.4-113.35,19.38-67.77,18.84-115.55-1.65-146.07-12.19-18.15-31.2-30.89-59.83-40.08-27.38-8.79-61.36-13.33-94-16.92-75.91-8.35-138,19.48-138.64,19.76l-.14.06c-.72.3-72.91,29.63-128.23,55.1a36.46,36.46,0,0,0-16.81,14.8l-2.66,4.51Z"></path><path fill="#cacaca" d="M2899.56,1685.75a584,584,0,0,0,351.08,106.32c4.61-.12,4.63-7.31,0-7.18a577.5,577.5,0,0,1-347.46-105.34c-3.78-2.67-7.38,3.55-3.62,6.2Z"></path><path fill="#f5b0a6" d="M2215.57,2376.2l-55,134.05s31.1,47.36,83.44,43.69l92.52-164.16Z"></path><path d="M2238.37,2557.64c-20.27,0-40.17-7.34-57.88-21.43a114.05,114.05,0,0,1-22.84-24l-1-1.54,56.7-138.2,128.83,14.47-96,170.4-1.88.13Q2241.31,2557.64,2238.37,2557.64Zm-73.83-47.84c5.66,7.69,33.93,42.78,77.35,40.76l89-157.89L2217.81,2380Z"></path><path fill="#fff" d="M1950.57,2543.48l276.64,107.67a135.59,135.59,0,0,0,5.63-12.72c.76-1.94,1.35-3.89,2.14-5.81,15.47-37.64,45.6-117.29,23.71-112.35-28.7,23.51-68.31-6.49-68.31-6.49s-13.53-47.11-36.62-43.41-9.74,33-41.21,42.3c-24.1,7.11-44.1-10.16-73.54-15.58a90.41,90.41,0,0,0-30-.6c-26,3.75-41,17.39-49.32,29A64.57,64.57,0,0,0,1950.57,2543.48Z"></path><path fill="#2f4171" d="M1950.57,2543.48l276.64,107.67a135.59,135.59,0,0,0,5.63-12.72c.76-1.94,1.35-3.89,2.14-5.81,15.47-37.64,35.46-91.68,13.57-86.74-15.09,12.36-35.42,9.93-51.3,4.84a37.22,37.22,0,0,1-25.65-31.91c-1.53-16-6.2-35.28-19.88-33.09-23.08,3.69-7.7,17.64-39.17,27-24.1,7.11-44.1-10.16-73.54-15.58a90.41,90.41,0,0,0-30-.6c-26,3.75-41,17.39-49.32,29A64.57,64.57,0,0,0,1950.57,2543.48Z"></path><path d="M2228.89,2655.56l-2.95-1.15-279.59-108.82.84-3.05a68.19,68.19,0,0,1,9.69-19.07c8.42-11.71,24.21-26.48,51.68-30.44a94,94,0,0,1,31.09.62c11.29,2.08,21,5.75,30.32,9.3,14.82,5.63,27.61,10.49,41.59,6.37,15.07-4.46,18.65-13.8,22.12-22.84,3.3-8.61,6.72-17.51,19.53-19.56,23.92-3.83,37.77,37,40.17,44.71,5.86,4.07,39.15,25.55,63.1,5.93l.64-.52.8-.19c5-1.12,7.8,1.16,9,2.61,3.24,3.83,6.21,13.24-5.25,50.5-7.28,23.67-17.84,50.25-23.48,64-.41,1-.76,2-1.13,3.06-.32.89-.64,1.79-1,2.69-1.92,4.91-3.81,9.18-5.78,13ZM1955,2541.44l270.51,105.29c1.38-2.9,2.73-6.06,4.09-9.57.32-.82.61-1.65.9-2.47.39-1.11.79-2.25,1.27-3.4,29.1-70.84,34.27-102.08,29.85-107.31-.14-.18-.41-.52-1.42-.42a43,43,0,0,1-27.26,9.3c-22.79,0-43.45-15.37-44.66-16.29l-.92-.7-.33-1.12c-3.53-12.28-16.32-43.56-32.7-40.92-8.82,1.41-11,7.18-14.1,15.16-3.69,9.62-8.29,21.6-26.66,27-16.25,4.79-30.73-.71-46.07-6.54-9.06-3.44-18.43-7-29.1-9a87.09,87.09,0,0,0-28.82-.57c-25,3.61-39.37,17-47,27.57A66.9,66.9,0,0,0,1955,2541.44Z"></path><path fill="#fff" d="M3089.86,1679.89s-387.43-170.61-535.29-92.49C2443.8,1645.92,2157,2411.24,2157,2411.24l163.68,72.3c78.07-175.83,274.08-369.61,304.82-568.89,2.64-17.11,229.21,110.93,430.33,112.95C3570.12,1993.42,3155.59,1807.54,3089.86,1679.89Z"></path><path fill="#2c4da2" d="M3089.86,1679.89s-387.43-170.61-535.29-92.49c-110.77,58.52-348.74,788.8-348.74,788.8l106.87,80.7c78.08-175.84,282-343,312.76-542.25,2.64-17.11,229.21,110.93,430.33,112.95C3570.12,1993.42,3155.59,1807.54,3089.86,1679.89Z"></path><path d="M2322.42,2488.16l-169.89-75.06,1.16-3.09c.71-1.92,72.71-193.68,157.32-390.13,113.87-264.38,195.26-410.92,241.92-435.58,34.33-18.14,84.12-24.49,148-18.89,50.75,4.45,110.55,16.42,177.73,35.57,114.25,32.58,211.68,75.28,212.65,75.7l1.13.5.57,1.1c17.58,34.15,61.8,73.66,104.56,111.86,31.47,28.11,64,57.18,86.23,84.32,25.57,31.24,34.47,56.68,27.21,77.78-7.19,20.91-29.74,37.3-68.92,50.09-42.43,13.86-103.28,23.27-186,28.76h-.27c-136.37-1.37-286.1-61.08-366.54-93.16-27.57-11-53.7-21.42-60.41-21.42h-.1c-19.4,122.86-100.38,242.69-178.7,358.6-49.49,73.24-96.24,142.42-126.18,209.84Zm-161-78.79,157.45,69.57c30.23-67,76.46-135.38,125.35-207.74,78.17-115.69,159-235.31,177.8-357.08a5,5,0,0,1,2.52-3.64c5.76-3.3,21.79,2.81,67.28,21,80,31.9,228.86,91.27,363.88,92.66,153.67-10.22,235-34.48,248.66-74.14,14.48-42.07-49.55-99.27-111.48-154.6-42.78-38.22-87-77.74-105.54-112.76-11.15-4.83-103.49-44.34-210.7-74.91-66.74-19-126.09-30.9-176.39-35.31-62.46-5.48-110.92.62-144,18.11-44.57,23.55-127.13,173-238.75,432.13C2238.79,2205.26,2171,2383.86,2161.41,2409.37Z"></path><path d="M2579.69,1940.45c-17.88,57.58-48.53,111.88-77.54,164.4-39.09,70.78-81,140-124.1,208.39q-36.39,57.77-74.1,114.69c-2.19,3.31,3.14,6.4,5.32,3.11q68.37-103.2,132.32-209.25c39.1-65.05,77.38-130.93,110.52-199.26,12.65-26.08,24.91-52.71,33.52-80.44,1.18-3.79-4.77-5.42-5.94-1.64Z"></path><path fill="#f5b0a6" d="M2702.43,2393.4l21,143.36s55.22,32.33,98.38,2.5l-8.38-195.82Z"></path><path d="M2779.28,2555.37a106.78,106.78,0,0,1-23.63-2.76,130.7,130.7,0,0,1-34-12.83l-1.45-.85-21.62-147.64,118.11-53.16,8.69,202.91-1.59,1.1C2811.09,2550.92,2796,2555.37,2779.28,2555.37Zm-52.65-20.85c8.69,4.59,54.82,26.8,91.59,2.93l-8.08-188.7-103.86,46.75Z"></path><path fill="#fff" d="M2525.5,2667.55h315.74a146.27,146.27,0,0,0,.68-14.78c0-2.21-.17-4.38-.13-6.59.82-43.27,0-133.84-19.83-120.5-19.38,34.38-70.22,19.92-70.22,19.92s-31.58-41.47-53-28.9,3.07,36.45-24.52,57.82c-21.15,16.35-47.64,6.94-78.91,12.93a96.23,96.23,0,0,0-29.92,11c-24.27,13.72-33.9,33-37.7,47.77A68.62,68.62,0,0,0,2525.5,2667.55Z"></path><path fill="#2f4171" d="M2525.5,2667.55h315.74a146.27,146.27,0,0,0,.68-14.78c0-2.21-.17-4.38-.13-6.59.82-43.27-5.53-98.78-25.32-85.44-7.27,12.89-18.7,17.55-30.14,18.34-18.87,1.31-36.79-8.22-47.19-24-8.48-12.88-21.81-27.74-34.82-20.12-21.46,12.57-2.55,18.2-30.14,39.57-21.15,16.35-47.64,6.94-78.91,12.93a96.23,96.23,0,0,0-29.92,11c-24.27,13.72-33.9,33-37.7,47.77A68.62,68.62,0,0,0,2525.5,2667.55Z"></path><path d="M2844.4,2671.05H2522.34l-.32-3.15a72,72,0,0,1,2.23-22.57c3.82-14.81,13.75-35.48,39.38-50a99.87,99.87,0,0,1,31-11.35c12-2.29,23-2.38,33.59-2.47,16.9-.14,31.5-.26,43.83-9.79,13.29-10.29,13.24-21,13.19-31.34,0-9.74-.09-19.82,11.7-26.73,22.14-13,51.62,22.26,56.83,28.83,7.21,1.74,48.85,10.36,65.15-18.55l.41-.72.68-.47c4.42-3,8-1.83,9.73-.88,4.64,2.52,11.15,10.65,14.16,51.89,1.91,26.27,1.7,56.68,1.4,72.47,0,1.13,0,2.27.06,3.47,0,1,.07,2,.07,3.05a148,148,0,0,1-.7,15.14Zm-315.52-7H2838c.25-3.46.38-7.18.38-11.28,0-.95,0-1.88-.07-2.82,0-1.23-.08-2.51,0-3.83,1.53-81.54-5.47-114.57-11.92-118.08-.25-.14-.74-.41-1.84.16-8.64,14.66-24.11,22.89-44.8,23.83a100.05,100.05,0,0,1-29-3.06l-1.12-.32-.7-.93c-8.27-10.84-33.11-37-48.49-28-8.31,4.87-8.28,11.49-8.24,20.66.05,10.91.12,24.5-15.91,36.91-14.2,11-30.64,11.11-48.05,11.25-10.32.08-21,.17-32.34,2.34a93.13,93.13,0,0,0-28.86,10.57c-23.48,13.28-32.56,32.13-36,45.6A71.21,71.21,0,0,0,2528.88,2664.05Z"></path><path fill="#fff" d="M3375.55,1776S3067,1652,2741.09,1599.71s-67.21,814.36-67.21,814.36L2852,2389.29s-23.25-438.18-13.43-457.81c7.74-15.49,100.2,153.56,359,160.53C3537.25,2100.89,3428.54,1864.4,3375.55,1776Z"></path><path fill="#2c4da2" d="M3375.55,1776S3067,1652,2741.09,1599.71s-48,776.49-48,776.49L2852,2389.29s-23.25-438.18-13.43-457.81c7.74-15.49,82.32,124.16,341.11,131.13C3519.37,2071.49,3428.54,1864.4,3375.55,1776Z"></path><path d="M2671.38,2418l-.85-2.88c-.47-1.55-46.65-157.18-75.1-330.32-16.73-101.78-24.16-189.64-22.08-261.14,2.62-89.92,20.42-154.3,52.91-191.35,27.82-31.72,66.65-43.84,115.38-36,168.56,27.06,332.28,73.62,440,107.9,116.65,37.15,194.5,68.32,195.27,68.63l1.09.44.61,1c16.25,27.1,38.21,68.82,50.58,113.62,14.64,53.08,12.12,97-7.49,130.64-31.63,54.17-107.09,80.08-224.23,77-85.61-2.31-163.19-22.64-230.59-60.44-55.35-31-91.26-67-110.56-86.29-5.94-5.94-12.05-12.06-15.09-14.12-1.71,8.41-3.65,49.35,3.88,233.1,4.53,110.64,10.32,220.25,10.38,221.35l.17,3.21Zm42.83-817c-34,0-61.73,12-82.69,35.92-31.38,35.78-48.6,98.68-51.17,186.94-2.07,71,5.33,158.46,22,259.8,26.26,159.75,67.64,304.53,74.06,326.56l171.89-23.91c-1-18.92-6.13-118.25-10.23-218.38-9.2-224.9-4.28-234.74-2.66-238a5.09,5.09,0,0,1,3.78-2.87c4.54-.74,9.67,4.4,22,16.79,38.09,38.12,139.27,139.37,336.38,144.68,114.43,3,187.76-21.75,218-73.55,18.63-31.91,20.92-74,6.79-125.25-12-43.49-33.27-84.12-49.23-110.87-9.82-3.89-84.82-33.35-193.76-68-107.43-34.21-270.77-80.65-438.86-107.64A166.09,166.09,0,0,0,2714.21,1601Z"></path><path d="M2809.67 2335.68q-14.52-128.88-22.42-258.4-4-63.56-6.55-127.19c-1.07-26.86-7.89-71.21 24.4-83.39 33.92-12.78 60.89 19.78 83 39.67 27.9 25.09 60.35 44.72 94.68 59.7 70.28 30.67 149.29 44.41 225.51 48.81 45.91 2.65 94-.43 135.75-21.53 35.58-18 65.47-48 76.16-87.13 1-3.66 6.7-2.11 5.7 1.57-18.15 66.46-84.58 102.89-148.91 111.23-40.84 5.3-82.32 1.68-123-3.49-35.75-4.54-71.32-10.91-106.08-20.48-34.31-9.44-67.93-22-99.23-39.06a348.12 348.12 0 01-46-29.85c-14.27-11-26.73-23.69-40.1-35.7-14.43-13-34.43-25.54-54.62-18.54-20.85 7.22-22.75 31.75-22.38 50.49.82 41.7 3.37 83.46 5.76 125.1 5.54 96.25 13.42 192.39 24.21 288.19.43 3.77-5.48 3.74-5.9 0zM3227.4 1724.73A357 357 0 003297 1827.29a331.2 331.2 0 0047.6 40.81c16.68 11.6 46.46 23.31 58.64-.89 1.71-3.4 6.81-.41 5.1 3-8.31 16.52-28.5 20.27-44.89 14.71-21.39-7.24-40.63-25.09-57-40.16a361.12 361.12 0 01-84.19-117c-1.55-3.43 3.54-6.44 5.1-3z"></path><path fill="#f5b0a6" d="M3233.66,1289.28s1.13,212.41-13.79,243.64-290.08,43.34-290.08,43.34l-11.43,41.26s286.91,100.86,395.15,27.59c76.81-52,79.92-380.76,79.92-380.76Z"></path><path d="M3197.78,1671.61c-35.66,0-77-4.38-123.08-13.06a1216.66,1216.66,0,0,1-157.51-41.41l-3.08-1.09,13-46.85,2.54-.11c.69,0,69.53-3.11,139.28-9.95,125.74-12.34,145.24-26.08,147.79-31.41,14.4-30.16,13.46-240,13.45-242.12l0-3,166.83-26,0,4.13c0,.83-.9,83.4-11.18,171.26-13.9,118.77-37.54,190.22-70.27,212.37-25.26,17.1-62,26.25-109.3,27.2C3203.41,1671.59,3200.61,1671.61,3197.78,1671.61Zm-275.17-60c14.64,5,79.29,26.13,153.47,40.1,110.58,20.81,192,16.27,235.47-13.15,69.82-47.26,77.59-335.66,78.31-373.77l-152.69,23.82c.08,27.06.14,212.25-14.15,242.16-2.52,5.29-10.88,13.31-54.09,21.87-24.79,4.91-58.22,9.45-99.35,13.49-62.37,6.12-124,9.23-137.09,9.85Z"></path><path d="M3220.52,1535.78a191.36,191.36,0,0,1,43.92,15.19c4,2,7.55-4,3.51-6a198.78,198.78,0,0,0-45.58-15.89c-4.37-1-6.23,5.77-1.85,6.72Z"></path><path d="M3239.8,1538.66a145.84,145.84,0,0,1,40.72-11.24c4.39-.55,4.44-7.53,0-7a157.81,157.81,0,0,0-44.24,12.18c-4.1,1.8-.55,7.8,3.52,6Z"></path><path fill="#fff" d="M3360,1146.57c27.9,48.48,57.09,202.28,48.75,286.64l-192.18,16s-27.4-186.89-19.71-264.57c4.87-49.23,28.19-59.34,55.55-69.61C3296.44,1098.52,3336.48,1105.78,3360,1146.57Z"></path><path fill="#6fc183" d="M3360,1146.57c27.9,48.48,36,181.46,27.68,265.81l-171.11,36.86s-27.4-186.89-19.71-264.57c4.87-49.23,28.19-59.34,55.55-69.61C3296.44,1098.52,3336.48,1105.78,3360,1146.57Z"></path><path d="M3213.52 1453l-.46-3.29c-.18-1.29-17.75-130-10.11-207.24l7 .69c-6.88 69.5 7 181.72 9.64 202.31L3405.49 1430c7.72-87.25-19.53-235.69-45.34-280.52-6.14-10.68-13.51-20.75-19.7-26.94l4.94-5c6.71 6.7 14.3 17 20.83 28.39 13.53 23.52 27.28 72.3 36.77 130.49 9.79 60 13.14 117.27 9.2 157.12l-.29 2.9zM2932.44 1221.16a402.44 402.44 0 00-43.27 163.78c-.18 3.8-6.08 3.49-5.9-.31a409.78 409.78 0 0144.26-166.76c1.72-3.38 6.62-.07 4.91 3.29z"></path><path fill="#f5b0a6" d="M3195.36,1076.15s-109.79,127.29-138.11,50.7l1.44-43.79,1.57-47.79,1.1-33.45,90.89-71.34Z"></path><path d="M3087.51,1151.18a36.3,36.3,0,0,1-6.38-.55c-12.41-2.25-21.55-11.08-27.16-26.25l-.24-.64,4.19-127.35,96.23-75.53,45.11,152.45-1.25,1.45C3195.2,1078,3131.56,1151.18,3087.51,1151.18Zm-26.74-28.59c4.75,12.46,11.83,19.38,21.61,21.15,37.1,6.7,99.46-61.34,109.08-72.13l-41.1-138.88-85.56,67.15Z"></path><path fill="#f5b0a6" d="M3181.08,1075.38l5.62,13.86c52.42,13.4,47.06-57,33.3-111s17.21-77.3,20.66-143.86-68.49-120.52-145-108.67c-25.41,4-43.73,17.62-57.12,35-26.91,34.93-33.81,84.74-38.15,100.08-6.51,22.95-29.46,20.27-28.7,30.22s19.89,11.09,27.16,18.75.39,23.34,8.81,53.56,52.41,31.76,52.41,31.76l-2.18,112.39Z"></path><path d="M3061.38,1103.9l-7-.13,2.11-109.08c-11-1.06-44.56-6.56-52.23-34.07-4.39-15.79-4.73-27.79-5-36.55-.21-7.68-.35-12.76-3-15.54-2.47-2.6-7.13-4.52-11.65-6.37-7.43-3-15.85-6.51-16.46-14.52-.5-6.52,5.11-9.35,10.54-12.09,6.65-3.35,14.93-7.53,18.28-19.36.75-2.66,1.63-6.59,2.64-11.14,4.74-21.27,13.57-60.85,36.11-90.12,15.74-20.42,35.71-32.64,59.35-36.31,41.47-6.43,84.07,5.85,113.95,32.84,24.16,21.81,36.62,50,35.09,79.47-1.51,29.15-8.24,50.22-14.18,68.81-7.92,24.74-14.17,44.29-6.58,74,6.44,25.25,19,86.38-3.32,108.7-8.07,8.07-19.59,10.26-34.23,6.51l-1.71-.43-6.29-15.51,6.48-2.63,4.95,12.2c11.39,2.57,19.86.9,25.85-5.09,13.73-13.72,14.28-51.86,1.49-102-8.08-31.66-1.24-53.07,6.69-77.87,5.81-18.18,12.4-38.78,13.86-67,1.42-27.29-10.23-53.54-32.79-73.91-28.34-25.58-68.78-37.22-108.19-31.11-21.8,3.39-40.27,14.71-54.88,33.66-21.59,28-30.19,66.64-34.81,87.37-1.08,4.85-1.94,8.68-2.74,11.53-4.2,14.79-14.83,20.15-21.87,23.7-4.77,2.4-6.84,3.63-6.71,5.3.28,3.71,6,6.08,12.14,8.58,5.2,2.13,10.57,4.34,14.07,8,4.49,4.73,4.67,11.2,4.92,20.17.23,8.39.55,19.89,4.72,34.86,7.62,27.38,48.75,29.19,49.17,29.21l3.44.12-.07,3.44Z"></path><path d="M3038.53,757.06c2.81,31.14,14.57,74.65,55.48,99.45,0,0,15.69-40.57,43.83-30.84s53,75.76-20,86c0,0-14.06,115.25,0,138s68.89,35.88,68.89,35.88c52.42,13.4,47.06-57,33.3-110.95s17.21-77.3,20.66-143.86-68.49-120.53-145-108.67C3070.24,726,3051.92,739.7,3038.53,757.06Z"></path><path d="M3050 844.14l-.48 0a3.5 3.5 0 01-3-4c2.45-17.73-26.71-34.19-27-34.35a3.5 3.5 0 013.4-6.12c1.37.76 33.63 19 30.53 41.43A3.5 3.5 0 013050 844.14zM3018.18 923.45l-.95 0a3.5 3.5 0 01.21-7h.72c19.32 0 22.25-23.61 22.36-24.62a3.5 3.5 0 017 .77C3046.28 903.38 3038.62 923.45 3018.18 923.45zM3112.94 891.79a3.51 3.51 0 01-3.37-2.55c-.26-1-6.35-23.43 6.65-39.92 10.92-13.84 27-11.05 34-7.65a3.5 3.5 0 01-3.06 6.3c-.65-.31-15.33-7.12-25.43 5.69-10.77 13.66-5.46 33.5-5.4 33.69a3.5 3.5 0 01-2.44 4.31A3.38 3.38 0 013112.94 891.79zM3019.94 843.36c0 4.38 2.5 7.94 5.58 7.94s5.57-3.56 5.57-7.94-2.49-7.93-5.57-7.93S3019.94 839 3019.94 843.36z"></path><polygon fill="#5681bf" points="3137.5 902.9 3153.49 960.46 3120.28 960.46 3137.5 902.9"></polygon><path d="M3153.49 962h-33.21a1.49 1.49 0 01-1.44-1.93l17.22-57.56a1.51 1.51 0 011.44-1.07h0a1.52 1.52 0 011.43 1.1l16 57.56a1.5 1.5 0 01-1.45 1.9zm-31.2-3h29.23l-14.07-50.65zM3065.43 995.1c-1.84 0-3.7-.05-5.57-.16a3.5 3.5 0 01.41-7c19.86 1.19 38.69-5.11 38.88-5.17a3.5 3.5 0 012.25 6.63A124 124 0 013065.43 995.1z"></path><circle cx="3260.27" cy="799.44" r="56.36" transform="rotate(-45 3260.27 799.442)"></circle><path fill="#3d5891" d="M3114.92,1661.21l-566.43-42.39a25.26,25.26,0,0,1-23.24-22.47l-2.58-23.65-26.51-243.59a16,16,0,0,1,17-17.9l374.42,28A16.91,16.91,0,0,1,2903,1353l51.55,273.81s128.42,17.37,143.38,19.2A19.07,19.07,0,0,1,3114.92,1661.21Z"></path><path fill="#5681bf" d="M2666.05,1528.75c-68.2,33.67-116.74,42.24-143.38,44l-26.51-243.59a16,16,0,0,1,17-17.9l234.72,17.57C2751,1381.31,2746.7,1488.94,2666.05,1528.75Z" opacity=".44"></path><path fill="#0f264f" d="M2953.64,1627.65l-19-1.42s-43.33-233.29-50.21-262.72c-2.74-11.69-5.78-19.29-8.46-24.2l10.73.8a16.92,16.92,0,0,1,15.36,13.73Z"></path><path d="M2958.8,1630.61l-26.22-2-.49-2.65c-.43-2.34-43.39-233.56-50.17-262.57-2.3-9.81-5-17.65-8.13-23.32l-3.08-5.65,17.15,1.29a20.42,20.42,0,0,1,18.53,16.57Zm-20.32-8.54,11.75.88-50.71-269.33a13.43,13.43,0,0,0-12.18-10.89l-4.71-.36a120.81,120.81,0,0,1,6.1,19.47C2895.15,1389.3,2933.66,1596.13,2938.48,1622.07Z"></path><path fill="#fff" d="M2705.43,1541.58c-11.45,0-22.47-5.07-31.34-14.49-9.41-10-15.29-23.79-16.55-38.83s2.24-29.61,9.86-41c7.86-11.78,19.12-18.85,31.73-19.91s24.88,4,34.59,14.35c9.42,10,15.3,23.79,16.56,38.83h0c1.26,15-2.24,29.61-9.86,41-7.86,11.78-19.13,18.85-31.73,19.91C2707.6,1541.53,2706.51,1541.58,2705.43,1541.58ZM2702.34,1437c-.79,0-1.59,0-2.39.11-9.55.8-18.21,6.32-24.36,15.56-6.4,9.58-9.33,21.93-8.25,34.76s6,24.52,13.92,32.91c7.61,8.08,17.06,12.09,26.61,11.29s18.2-6.33,24.36-15.57c6.39-9.58,9.32-21.93,8.25-34.76h0c-1.08-12.83-6-24.51-13.92-32.9C2719.59,1441,2711.07,1437,2702.34,1437Z"></path><path d="M3114.92,1664.71h-.26l-566.43-42.39a28.77,28.77,0,0,1-26.46-25.59l-29.09-267.23a19.51,19.51,0,0,1,20.74-21.77l374.44,28a20.42,20.42,0,0,1,18.53,16.57l51.1,271.33c18,2.43,127.21,17.19,140.82,18.85,13.92,1.7,19.21,12.64,20.07,18.18a3.5,3.5,0,0,1-3.46,4Zm-602.9-350a12.49,12.49,0,0,0-12.38,14L2528.72,1596a21.8,21.8,0,0,0,20,19.36l561,42c-1.78-3.17-5.35-7-12.31-7.87-14.82-1.81-142.14-19-143.42-19.2a3.52,3.52,0,0,1-3-2.82l-51.55-273.81a13.43,13.43,0,0,0-12.18-10.89l-374.43-28C2512.62,1314.68,2512.32,1314.67,2512,1314.67Z"></path><path fill="#2e6857" fill-rule="evenodd" d="M3687.73,2019.36c-94-36.4-117.79,42.82-81.26,108.42s223.94,286.21,233.74,373.71c3.79,33.93,12.47,30.22,19.88,6.44C3897.13,2389.3,3817.07,2069.48,3687.73,2019.36Z"></path><path d="M3849.09,2530.36c-.23,0-.45,0-.68,0-6.38-.61-10-9.1-12.18-28.39-6.58-58.74-97.18-182-163.33-272-31.25-42.51-58.24-79.23-69.92-100.22-10.47-18.8-16.28-38.75-16.79-57.69-.53-19.45,4.59-36,14.82-47.69,10.41-12,35.72-29,88.17-8.71h0c31.35,12.15,61.17,39.86,88.62,82.36,24,37.24,45.6,85.23,62.32,138.77,32.55,104.24,42.11,213.69,23.79,272.36C3859.41,2523.58,3854.68,2530.36,3849.09,2530.36Zm-204.15-516.13c-16.06,0-29,5.14-37.9,15.36-18.19,20.9-17,60.48,2.93,96.24,11.44,20.55,38.29,57.08,69.38,99.38,70.4,95.78,158,215,164.83,275.84,1.69,15.08,4,19.68,5,21,1-1,3.7-4.43,7.08-15.29,17.88-57.25,8.32-164.79-23.79-267.59-16.5-52.86-37.73-100.17-61.4-136.82-26.52-41-55-67.71-84.79-79.24C3671,2017.17,3657.09,2014.23,3644.94,2014.23Z"></path><path d="M3846.59,2525.15c2.71,2.83,5.82.61,8.93-5.48,13.52-208.75-210.32-476.24-211-477.09a5.23,5.23,0,0,0-5.87-1c-2,.88-2.67,2.8-1.44,4.27C3637.87,2046.67,3864.76,2317.82,3846.59,2525.15Z"></path><path fill="#40947e" fill-rule="evenodd" d="M3886.67,1718.8c107.72-70.72,175.07,28.28,156.46,123.78s-166.6,432.22-140,550.23c10.33,45.76-2.82,43-23.38,13.3C3777.21,2258.2,3738.36,1816.16,3886.67,1718.8Z"></path><path d="M3902,2431.42c-4.47,0-11.79-4.15-25.07-23.32-35.06-50.54-64.12-137.41-79.73-238.33-15.83-102.4-15.81-208,.06-289.75,7.44-38.35,18.23-71.48,32.07-98.48,15-29.29,33.66-51.38,55.42-65.66,43.34-28.46,84.86-32.29,116.91-10.78,37.4,25.11,55.86,81.92,44.9,138.15-5.94,30.46-25,85.39-47,149-46.82,135.09-110.94,320.1-92.94,399.8,6.91,30.65,2.72,36.81-1.7,38.75A7.09,7.09,0,0,1,3902,2431.42Zm-13.41-709.69c-40.1,26.32-69.3,81.52-84.46,159.62-32.51,167.47,4.93,416.64,78.55,522.76,14.31,20.64,19.4,20.26,19.44,20.26s3.86-3.26-2.35-30.79c-8.21-36.35-1.09-95.55,21.77-181,19.59-73.2,47.11-152.6,71.39-222.65,22-63.36,40.92-118.07,46.76-148,10.44-53.55-6.8-107.41-41.93-131-29.56-19.84-68.33-16-109.17,10.81Z"></path><path d="M3905.43,2425.62c-2.31,4.38-7.43,2.2-14.3-5.1-112.26-272.7,62.64-680.12,63.19-681.42,1-2.25,4.23-3.51,7.31-2.8s4.8,3.07,3.83,5.31C3964.93,1742.92,3787.64,2155.91,3905.43,2425.62Z"></path><path fill="#6fc183" fill-rule="evenodd" d="M4122,1945.39c104.38-33.14,120.76,52.83,74.3,120.58s-271.63,291.73-292.09,384.47c-7.91,35.95-16.74,31.47-21.94,5.65C3856.29,2327.3,3978.26,1991,4122,1945.39Z"></path><path d="M3892.08,2479.93H3892c-5.85,0-10.05-7.41-13.22-23.15-12.8-63.56,9.88-179.54,56.46-288.61,23.92-56,52.35-105.82,82.21-144,34-43.49,68.8-71.11,103.43-82.1,42.57-13.51,75.25-8.52,92,14.07,9.65,13,13.31,30.78,10.6,51.44-2.65,20.11-11.08,41-24.37,60.39-14.82,21.59-47.73,59-85.83,102.37-81,92.14-191.94,218.34-205.73,280.87C3903.22,2471.06,3898.43,2479.93,3892.08,2479.93Zm271.51-538.33c-11.94,0-25.57,2.36-40.57,7.12h0c-33.26,10.55-66.91,37.38-100,79.74-29.5,37.73-57.61,87-81.29,142.46-46.07,107.87-68.59,222.19-56,284.48,2.8,13.89,5.75,16.92,6.43,17.45.8-.55,4.45-4,8.66-23.16,14.19-64.3,125.81-191.28,207.31-284,37.95-43.18,70.73-80.46,85.31-101.71,25.7-37.48,31.43-80.12,13.93-103.7C4198.09,1947.89,4183.08,1941.6,4163.59,1941.6Z"></path><path d="M3894.67,2475.28c-3.21,2.86-6.29.29-8.9-6.38,9.44-223.51,278.81-495.24,279.65-496.13a5.8,5.8,0,0,1,6.42-.77c2,1.08,2.51,3.16,1,4.67C4172,1977.55,3899,2253,3894.67,2475.28Z"></path><path fill="#f19a6d" fill-rule="evenodd" d="M3975,2388.43H3774.43l-52.35,47.26,36.07,138.93a34.49,34.49,0,0,0,33.39,25.83h166.33a34.5,34.5,0,0,0,33.4-25.83l36.06-138.93Z"></path><path d="M3957.87,2604.45H3791.54a38.5,38.5,0,0,1-37.26-28.83l-36.68-141.28,55.29-49.91h203.62l55.3,49.91-36.67,141.28A38.52,38.52,0,0,1,3957.87,2604.45ZM3726.56,2437,3762,2573.61a30.5,30.5,0,0,0,29.52,22.84h166.33a30.5,30.5,0,0,0,29.52-22.84L4022.85,2437l-49.42-44.6H3776Z"></path><path fill="#f3ce90" fill-rule="evenodd" d="M4027.33,2327.13H3722.08a16.63,16.63,0,0,0-16.6,16.59v75.36a16.65,16.65,0,0,0,16.6,16.61h305.25a16.66,16.66,0,0,0,16.61-16.61v-75.36A16.64,16.64,0,0,0,4027.33,2327.13Z"></path><path d="M4027.33,2439.69H3722.08a20.63,20.63,0,0,1-20.6-20.61v-75.36a20.62,20.62,0,0,1,20.6-20.59h305.25a20.63,20.63,0,0,1,20.61,20.59v75.36A20.64,20.64,0,0,1,4027.33,2439.69Zm-305.25-108.56a12.61,12.61,0,0,0-12.6,12.59v75.36a12.62,12.62,0,0,0,12.6,12.61h305.25a12.63,12.63,0,0,0,12.61-12.61v-75.36a12.62,12.62,0,0,0-12.61-12.59Z"></path><polygon fill="#ef7c59" fill-rule="evenodd" points="3722.08 2435.69 3730.87 2469.55 4018.53 2469.55 4027.33 2435.69 3722.08 2435.69"></polygon></g></svg>